<svg version="1.1" id="Layer_1" xmlns="http://www.w3.org/2000/svg" xmlns:xlink="http://www.w3.org/1999/xlink" x="0px" y="0px"
	 width="100%" viewBox="0 0 980 980" enable-background="new 0 0 980 980" xml:space="preserve">
<path fill="#74AA9C" opacity="1.000000" stroke="none" 
	d="
M568.000000,981.000000 
	C378.666656,981.000000 189.833328,981.000000 1.000000,981.000000 
	C1.000000,654.333313 1.000000,327.666656 1.000000,1.000000 
	C327.666656,1.000000 654.333313,1.000000 981.000000,1.000000 
	C981.000000,327.666656 981.000000,654.333313 981.000000,981.000000 
	C843.500000,981.000000 706.000000,981.000000 568.000000,981.000000 
M874.453613,638.936646 
	C879.304749,623.563843 885.881958,608.500671 888.704712,592.764038 
	C900.207947,528.634521 884.713318,471.209625 842.896973,421.103638 
	C840.456055,418.178894 840.008667,415.793030 841.063599,412.190125 
	C857.110962,357.384369 851.580261,304.786346 824.325745,254.586929 
	C781.785889,176.233765 692.978638,134.432648 605.457825,151.520493 
	C602.486816,152.100555 600.632385,151.448441 598.472168,149.286194 
	C591.772339,142.579941 585.210205,135.601868 577.760498,129.800339 
	C518.422607,83.590286 452.337067,71.682556 381.348969,95.536423 
	C319.204041,116.418755 277.288727,159.620361 254.543427,221.165131 
	C253.229507,224.720337 251.485077,226.364212 247.767975,227.257278 
	C195.207016,239.885880 153.746017,268.684113 123.831665,313.684875 
	C73.298004,389.703674 78.988869,489.571625 137.674255,559.249634 
	C140.824600,562.990051 142.162155,565.996887 140.650894,571.151611 
	C126.076378,620.863464 129.743164,669.372375 151.885880,716.201355 
	C191.957535,800.947693 282.416412,847.476624 374.448212,830.837830 
	C379.154205,829.987000 381.912018,831.132019 385.211395,834.449646 
	C441.250610,890.798889 508.673035,910.366150 585.266724,891.010437 
	C655.407593,873.285461 702.616760,827.953491 727.798645,760.021118 
	C728.920776,756.993774 730.413818,755.593384 733.598389,754.874390 
	C752.389832,750.631836 770.272034,743.880981 787.084961,734.441162 
	C826.443909,712.342651 855.183472,680.473328 874.453613,638.936646 
z"/>
<path fill="#FDFEFE" opacity="1.000000" stroke="none" 
	d="
M874.271240,639.266968 
	C855.183472,680.473328 826.443909,712.342651 787.084961,734.441162 
	C770.272034,743.880981 752.389832,750.631836 733.598389,754.874390 
	C730.413818,755.593384 728.920776,756.993774 727.798645,760.021118 
	C702.616760,827.953491 655.407593,873.285461 585.266724,891.010437 
	C508.673035,910.366150 441.250610,890.798889 385.211395,834.449646 
	C381.912018,831.132019 379.154205,829.987000 374.448212,830.837830 
	C282.416412,847.476624 191.957535,800.947693 151.885880,716.201355 
	C129.743164,669.372375 126.076378,620.863464 140.650894,571.151611 
	C142.162155,565.996887 140.824600,562.990051 137.674255,559.249634 
	C78.988869,489.571625 73.298004,389.703674 123.831665,313.684875 
	C153.746017,268.684113 195.207016,239.885880 247.767975,227.257278 
	C251.485077,226.364212 253.229507,224.720337 254.543427,221.165131 
	C277.288727,159.620361 319.204041,116.418755 381.348969,95.536423 
	C452.337067,71.682556 518.422607,83.590286 577.760498,129.800339 
	C585.210205,135.601868 591.772339,142.579941 598.472168,149.286194 
	C600.632385,151.448441 602.486816,152.100555 605.457825,151.520493 
	C692.978638,134.432648 781.785889,176.233765 824.325745,254.586929 
	C851.580261,304.786346 857.110962,357.384369 841.063599,412.190125 
	C840.008667,415.793030 840.456055,418.178894 842.896973,421.103638 
	C884.713318,471.209625 900.207947,528.634521 888.704712,592.764038 
	C885.881958,608.500671 879.304749,623.563843 874.271240,639.266968 
M240.254425,285.132965 
	C209.095078,297.208832 184.859619,317.616028 166.560074,345.507721 
	C129.889023,401.400757 137.075653,481.725739 183.014206,530.369324 
	C197.291382,545.487244 214.223938,556.658203 232.089706,566.882812 
	C281.372589,595.087280 330.494324,623.573669 379.625336,652.042603 
	C382.714142,653.832458 385.113586,654.066772 388.309692,652.181213 
	C405.091675,642.280701 422.016449,632.622314 438.877716,622.855835 
	C443.553497,620.147522 448.181824,617.357239 453.495117,614.211914 
	C451.203888,612.793884 449.715302,611.816956 448.175964,610.927856 
	C385.011230,574.448303 321.878113,537.913635 258.629639,501.579803 
	C250.289932,496.788940 244.790451,490.357300 242.765106,480.060455 
	C242.737640,470.062012 242.688004,460.063599 242.686386,450.065155 
	C242.677826,397.238983 242.701538,344.412781 242.608871,291.586761 
	C242.605057,289.417328 241.547852,287.249756 240.254425,285.132965 
M828.657776,498.962616 
	C815.216919,465.650482 792.997742,439.926025 761.890076,421.954834 
	C709.131470,391.475739 656.302979,361.117035 603.622986,330.502777 
	C599.380310,328.037231 596.401855,328.148621 592.323914,330.604156 
	C579.346436,338.418518 566.098572,345.783112 552.978699,353.362091 
	C544.991028,357.976318 537.046753,362.665466 528.319275,367.767395 
	C536.633911,372.575378 544.090515,376.887939 551.547791,381.199280 
	C608.770813,414.281830 665.937073,447.463440 723.267090,480.359619 
	C734.228027,486.649078 739.387817,495.248962 739.344421,507.933899 
	C739.136108,568.740540 739.247986,629.548279 739.273621,690.355652 
	C739.274536,692.564026 739.563843,694.772339 739.738708,697.265381 
	C741.416504,696.828491 742.411438,696.692261 743.307190,696.318420 
	C781.092651,680.549072 809.088196,654.401184 825.751831,616.906799 
	C842.860474,578.411194 843.533936,539.186584 828.657776,498.962616 
M295.873688,396.500000 
	C295.872253,422.489868 295.974823,448.480560 295.765930,474.468781 
	C295.731537,478.749786 297.214081,481.027374 300.841644,483.055237 
	C314.648071,490.773315 328.276428,498.809662 341.984436,506.704315 
	C349.571014,511.073578 357.183533,515.397766 365.470520,520.134460 
	C365.621948,517.681641 365.806061,516.084473 365.806793,514.487183 
	C365.840820,440.683105 365.877625,366.878998 365.858490,293.074921 
	C365.855621,282.070435 370.551239,273.897766 380.018829,268.430695 
	C428.900513,240.203796 477.795258,211.999405 526.673828,183.767136 
	C532.909058,180.165665 539.076782,176.447266 545.647339,172.563370 
	C544.392029,171.400894 543.822510,170.818100 543.197449,170.302612 
	C497.963074,132.996613 427.802521,126.364494 376.823090,155.163544 
	C323.515167,185.277969 296.555878,231.339157 295.942108,292.540253 
	C295.597961,326.856964 295.875977,361.179871 295.873688,396.500000 
M616.159973,475.519836 
	C616.157715,546.328796 616.106628,617.137878 616.202026,687.946716 
	C616.217651,699.516663 611.665710,708.041687 601.582764,713.843750 
	C555.546509,740.334595 509.560425,766.912476 463.566345,793.476501 
	C454.573883,798.670166 445.626099,803.941162 436.210632,809.437439 
	C438.621948,811.412720 440.335846,812.987488 442.214996,814.331055 
	C484.443085,844.525391 530.431824,852.669678 580.149597,837.222900 
	C642.101440,817.975098 685.605225,759.405090 685.938538,694.491211 
	C686.259338,632.014343 685.987793,569.534485 686.146912,507.056396 
	C686.157532,502.878937 684.503723,500.767212 681.155884,498.867157 
	C663.344299,488.758179 645.622742,478.490601 627.864075,468.288208 
	C624.322021,466.253265 620.754272,464.262970 616.160095,461.664978 
	C616.160095,466.690704 616.160095,470.610443 616.159973,475.519836 
M339.356293,690.116699 
	C289.098175,661.120544 238.840057,632.124390 187.906174,602.738342 
	C187.411041,605.579834 187.019974,607.331665 186.809357,609.105042 
	C182.173096,648.141052 191.011261,683.823181 213.276352,716.247803 
	C256.217987,778.783691 343.964294,799.621155 410.319763,762.770447 
	C429.245483,752.259949 447.853729,741.177795 466.610413,730.362732 
	C502.685638,709.561768 538.745483,688.733948 574.870117,668.019226 
	C577.994690,666.227600 579.225647,664.134644 579.201782,660.489685 
	C579.048828,637.157532 579.127380,613.823914 579.107483,590.490784 
	C579.106262,589.055542 578.914307,587.620422 578.754456,585.398010 
	C576.635376,586.450073 575.023804,587.144104 573.514282,588.015015 
	C540.044800,607.325439 506.592926,626.666626 473.124207,645.978516 
	C442.680267,663.544983 412.202484,681.052795 381.778046,698.652893 
	C372.369171,704.095764 363.079254,703.831909 353.785034,698.568054 
	C349.148102,695.941895 344.592102,693.172607 339.356293,690.116699 
M421.123627,386.606079 
	C476.086121,354.892334 531.046631,323.175140 586.013916,291.469788 
	C591.925903,288.059723 597.665100,284.246948 603.860352,281.455017 
	C613.347229,277.179657 622.193359,279.716003 630.915283,284.794342 
	C678.413208,312.450012 726.029663,339.902069 773.614746,367.408051 
	C780.196472,371.212555 786.830139,374.927246 793.836914,378.909241 
	C794.333679,377.170441 794.782776,376.115112 794.926697,375.019684 
	C799.458618,340.523804 793.606812,307.969055 776.194702,277.746857 
	C734.456726,205.302048 642.668091,179.331238 570.093384,220.124741 
	C515.509216,250.805954 461.564240,282.623993 407.298553,313.873169 
	C404.259125,315.623474 402.820740,317.587433 402.850037,321.348572 
	C403.031708,344.677643 402.921753,368.008881 402.934174,391.339417 
	C402.934998,392.883148 403.147278,394.426758 403.274353,396.148407 
	C404.362457,395.865356 404.881439,395.836609 405.288483,395.608337 
	C410.371613,392.758545 415.438507,389.879761 421.123627,386.606079 
M450.311981,569.193481 
	C461.840363,575.868347 473.470703,582.375732 484.844971,589.303528 
	C489.161407,591.932617 492.478638,592.142395 497.042236,589.451477 
	C523.001587,574.144226 549.153198,559.161133 575.335266,544.235901 
	C578.471558,542.447998 579.168030,540.222107 579.160645,536.969666 
	C579.090576,506.145355 579.053467,475.320435 579.220215,444.496826 
	C579.239868,440.868225 577.694519,439.161896 574.871277,437.540985 
	C548.011047,422.119598 521.226990,406.565125 494.313599,391.237488 
	C492.674286,390.303864 489.641815,390.121704 488.069885,391.016663 
	C460.719421,406.588165 433.464600,422.329285 406.321167,438.258698 
	C404.631226,439.250458 403.081360,442.095978 403.068787,444.089142 
	C402.871857,475.245575 402.991547,506.403900 402.868469,537.561096 
	C402.855377,540.868713 403.990723,542.606812 406.802155,544.196045 
	C421.150970,552.307251 435.379181,560.631775 450.311981,569.193481 
z"/>
<path fill="#75AA9C" opacity="1.000000" stroke="none" 
	d="
M828.792358,499.326019 
	C843.533936,539.186584 842.860474,578.411194 825.751831,616.906799 
	C809.088196,654.401184 781.092651,680.549072 743.307190,696.318420 
	C742.411438,696.692261 741.416504,696.828491 739.738708,697.265381 
	C739.563843,694.772339 739.274536,692.564026 739.273621,690.355652 
	C739.247986,629.548279 739.136108,568.740540 739.344421,507.933899 
	C739.387817,495.248962 734.228027,486.649078 723.267090,480.359619 
	C665.937073,447.463440 608.770813,414.281830 551.547791,381.199280 
	C544.090515,376.887939 536.633911,372.575378 528.319275,367.767395 
	C537.046753,362.665466 544.991028,357.976318 552.978699,353.362091 
	C566.098572,345.783112 579.346436,338.418518 592.323914,330.604156 
	C596.401855,328.148621 599.380310,328.037231 603.622986,330.502777 
	C656.302979,361.117035 709.131470,391.475739 761.890076,421.954834 
	C792.997742,439.926025 815.216919,465.650482 828.792358,499.326019 
z"/>
<path fill="#75AA9C" opacity="1.000000" stroke="none" 
	d="
M295.873657,396.000000 
	C295.875977,361.179871 295.597961,326.856964 295.942108,292.540253 
	C296.555878,231.339157 323.515167,185.277969 376.823090,155.163544 
	C427.802521,126.364494 497.963074,132.996613 543.197449,170.302612 
	C543.822510,170.818100 544.392029,171.400894 545.647339,172.563370 
	C539.076782,176.447266 532.909058,180.165665 526.673828,183.767136 
	C477.795258,211.999405 428.900513,240.203796 380.018829,268.430695 
	C370.551239,273.897766 365.855621,282.070435 365.858490,293.074921 
	C365.877625,366.878998 365.840820,440.683105 365.806793,514.487183 
	C365.806061,516.084473 365.621948,517.681641 365.470520,520.134460 
	C357.183533,515.397766 349.571014,511.073578 341.984436,506.704315 
	C328.276428,498.809662 314.648071,490.773315 300.841644,483.055237 
	C297.214081,481.027374 295.731537,478.749786 295.765930,474.468781 
	C295.974823,448.480560 295.872253,422.489868 295.873657,396.000000 
z"/>
<path fill="#75AA9C" opacity="1.000000" stroke="none" 
	d="
M616.160034,475.024994 
	C616.160095,470.610443 616.160095,466.690704 616.160095,461.664978 
	C620.754272,464.262970 624.322021,466.253265 627.864075,468.288208 
	C645.622742,478.490601 663.344299,488.758179 681.155884,498.867157 
	C684.503723,500.767212 686.157532,502.878937 686.146912,507.056396 
	C685.987793,569.534485 686.259338,632.014343 685.938538,694.491211 
	C685.605225,759.405090 642.101440,817.975098 580.149597,837.222900 
	C530.431824,852.669678 484.443085,844.525391 442.214996,814.331055 
	C440.335846,812.987488 438.621948,811.412720 436.210632,809.437439 
	C445.626099,803.941162 454.573883,798.670166 463.566345,793.476501 
	C509.560425,766.912476 555.546509,740.334595 601.582764,713.843750 
	C611.665710,708.041687 616.217651,699.516663 616.202026,687.946716 
	C616.106628,617.137878 616.157715,546.328796 616.160034,475.024994 
z"/>
<path fill="#75AA9C" opacity="1.000000" stroke="none" 
	d="
M339.677917,690.292358 
	C344.592102,693.172607 349.148102,695.941895 353.785034,698.568054 
	C363.079254,703.831909 372.369171,704.095764 381.778046,698.652893 
	C412.202484,681.052795 442.680267,663.544983 473.124207,645.978516 
	C506.592926,626.666626 540.044800,607.325439 573.514282,588.015015 
	C575.023804,587.144104 576.635376,586.450073 578.754456,585.398010 
	C578.914307,587.620422 579.106262,589.055542 579.107483,590.490784 
	C579.127380,613.823914 579.048828,637.157532 579.201782,660.489685 
	C579.225647,664.134644 577.994690,666.227600 574.870117,668.019226 
	C538.745483,688.733948 502.685638,709.561768 466.610413,730.362732 
	C447.853729,741.177795 429.245483,752.259949 410.319763,762.770447 
	C343.964294,799.621155 256.217987,778.783691 213.276352,716.247803 
	C191.011261,683.823181 182.173096,648.141052 186.809357,609.105042 
	C187.019974,607.331665 187.411041,605.579834 187.906174,602.738342 
	C238.840057,632.124390 289.098175,661.120544 339.677917,690.292358 
z"/>
<path fill="#75AA9C" opacity="1.000000" stroke="none" 
	d="
M420.816589,386.807251 
	C415.438507,389.879761 410.371613,392.758545 405.288483,395.608337 
	C404.881439,395.836609 404.362457,395.865356 403.274353,396.148407 
	C403.147278,394.426758 402.934998,392.883148 402.934174,391.339417 
	C402.921753,368.008881 403.031708,344.677643 402.850037,321.348572 
	C402.820740,317.587433 404.259125,315.623474 407.298553,313.873169 
	C461.564240,282.623993 515.509216,250.805954 570.093384,220.124741 
	C642.668091,179.331238 734.456726,205.302048 776.194702,277.746857 
	C793.606812,307.969055 799.458618,340.523804 794.926697,375.019684 
	C794.782776,376.115112 794.333679,377.170441 793.836914,378.909241 
	C786.830139,374.927246 780.196472,371.212555 773.614746,367.408051 
	C726.029663,339.902069 678.413208,312.450012 630.915283,284.794342 
	C622.193359,279.716003 613.347229,277.179657 603.860352,281.455017 
	C597.665100,284.246948 591.925903,288.059723 586.013916,291.469788 
	C531.046631,323.175140 476.086121,354.892334 420.816589,386.807251 
z"/>
<path fill="#75AA9C" opacity="1.000000" stroke="none" 
	d="
M242.714188,480.997681 
	C244.790451,490.357300 250.289932,496.788940 258.629639,501.579803 
	C321.878113,537.913635 385.011230,574.448303 448.175964,610.927856 
	C449.715302,611.816956 451.203888,612.793884 453.495117,614.211914 
	C448.181824,617.357239 443.553497,620.147522 438.877716,622.855835 
	C422.016449,632.622314 405.091675,642.280701 388.309692,652.181213 
	C385.113586,654.066772 382.714142,653.832458 379.625336,652.042603 
	C330.494324,623.573669 281.372589,595.087280 232.089706,566.882812 
	C214.223938,556.658203 197.291382,545.487244 183.014206,530.369324 
	C137.075653,481.725739 129.889023,401.400757 166.560074,345.507721 
	C184.859619,317.616028 209.095078,297.208832 240.624237,285.569550 
	C240.997833,348.527924 240.982071,411.049744 241.077576,473.571381 
	C241.081345,476.047668 242.144592,478.522278 242.714188,480.997681 
z"/>
<path fill="#75AA9C" opacity="1.000000" stroke="none" 
	d="
M449.980774,569.037598 
	C435.379181,560.631775 421.150970,552.307251 406.802155,544.196045 
	C403.990723,542.606812 402.855377,540.868713 402.868469,537.561096 
	C402.991547,506.403900 402.871857,475.245575 403.068787,444.089142 
	C403.081360,442.095978 404.631226,439.250458 406.321167,438.258698 
	C433.464600,422.329285 460.719421,406.588165 488.069885,391.016663 
	C489.641815,390.121704 492.674286,390.303864 494.313599,391.237488 
	C521.226990,406.565125 548.011047,422.119598 574.871277,437.540985 
	C577.694519,439.161896 579.239868,440.868225 579.220215,444.496826 
	C579.053467,475.320435 579.090576,506.145355 579.160645,536.969666 
	C579.168030,540.222107 578.471558,542.447998 575.335266,544.235901 
	C549.153198,559.161133 523.001587,574.144226 497.042236,589.451477 
	C492.478638,592.142395 489.161407,591.932617 484.844971,589.303528 
	C473.470703,582.375732 461.840363,575.868347 449.980774,569.037598 
z"/>
<path fill="#779A90" opacity="1.000000" stroke="none" 
	d="
M242.739655,480.529053 
	C242.144592,478.522278 241.081345,476.047668 241.077576,473.571381 
	C240.982071,411.049744 240.997833,348.527924 240.987732,285.543701 
	C241.547852,287.249756 242.605057,289.417328 242.608871,291.586761 
	C242.701538,344.412781 242.677826,397.238983 242.686386,450.065155 
	C242.688004,460.063599 242.737640,470.062012 242.739655,480.529053 
z"/>
</svg>